# xmcd
#
# Track frame offsets:
#	150
#	14787
#	26262
#	38422
#	47952
#	60862
#	71980
#	84557
#	95745
#	107777
#	120532
#	134392
#	147157
#	160777
#	173977
#	182780
#	194477
#	206275
#	218035
#	230782
#	247292
#	258547
#	274157
#
# Disc length: 3818 seconds
#
# Revision: 5
# Processed by: cddbd v1.5.2PL0 Copyright (c) Steve Scherf et al.
# Submitted via: EZCDAudioConverter 7.2.1.1
#
DISCID=5a0ee817
DTITLE=Merle Haggard - Untamed Hawk;Disc 5 of 5
DYEAR=1995
DGENRE=Country
TTITLE0=Green Green Grass Of Home (1968  ST 2972)
TTITLE1=I Could Have Gone Right (1968  ST 2972)
TTITLE2=The Day The Rains Came (1968  SKAO 168)
TTITLE3=I Think We're Livin' In The Good Old Days (1968  SKAO 168)
TTITLE4=Somewhere On Skid Row (1968  SKAO 168)
TTITLE5=Who Do I Know In Dallas (Recorded 1968 - Released 1969  ST 319)
TTITLE6=Folsom Prison Blues (1968  ST 2972)
TTITLE7=Too Many Bridges To Cross Over (1968  ST 2972)
TTITLE8=You're Not Home Yet (Recorded 1968 - Released 1995)
TTITLE9=I Take A Lot Of Pride In What I Am (1968  SKAO 168)
TTITLE10=I Just Want To Look At You One More Time (1968  SKAO 168)
TTITLE11=I'm Bringin' Home Good News (1968  SKAO 168)
TTITLE12=Keep Me From Cryin' Today (1968  SKAO 168)
TTITLE13=I Can't Hold Myself In Line (1968  SKAO 168)
TTITLE14=I'm Free (1968  SKAO 168)
TTITLE15=It Meant Goodbye To Me When You Said Hello To Him (1968  SKAO 168)
TTITLE16=Who'll Buy The Wine (1968  SKAO 168)
TTITLE17=She Thinks I Still Care (Recorded 1968 - Released 1969  ST 319)
TTITLE18=What's Wrong With Stayin' Home (Recorded 1968 - Released 1969  ST 319
TTITLE18=)
TTITLE19=When No Flowers Grow (Recorded 1968 - Released 1995)
TTITLE20=Every Fool Has A Rainbow (Recorded 1968 - Released 1969  ST 319)
TTITLE21=Hungry Eyes (Recorded 1968 - Released 1969  ST 319)
TTITLE22=Silver Wings (Recorded 1968 - Released 1969  ST 319)
EXTD=
EXTT0=
EXTT1=
EXTT2=
EXTT3=
EXTT4=
EXTT5=
EXTT6=
EXTT7=
EXTT8=
EXTT9=
EXTT10=
EXTT11=
EXTT12=
EXTT13=
EXTT14=
EXTT15=
EXTT16=
EXTT17=
EXTT18=
EXTT19=
EXTT20=
EXTT21=
EXTT22=
PLAYORDER=
